P2
# 2x2 test map
2 2
255
0 128
255 0
